<svg width="55" height="55" viewBox="0 0 55 55" fill="none" xmlns="http://www.w3.org/2000/svg">
<path d="M41.25 8.25H13.75C11.679 8.25 10 9.929 10 12V43C10 45.071 11.679 46.75 13.75 46.75H41.25C43.321 46.75 45 45.071 45 43V12C45 9.929 43.321 8.25 41.25 8.25ZM41.5 43C41.5 43.138 41.388 43.25 41.25 43.25H13.75C13.612 43.25 13.5 43.138 13.5 43V12C13.5 11.862 13.612 11.75 13.75 11.75H41.25C41.388 11.75 41.5 11.862 41.5 12V43Z" fill="url(#paint0_linear_service6)"/>
<path d="M37.5 16.5H17.5C16.809 16.5 16.25 17.059 16.25 17.75C16.25 18.441 16.809 19 17.5 19H37.5C38.191 19 38.75 18.441 38.75 17.75C38.75 17.059 38.191 16.5 37.5 16.5Z" fill="url(#paint1_linear_service6)"/>
<path d="M37.5 23H17.5C16.809 23 16.25 23.559 16.25 24.25C16.25 24.941 16.809 25.5 17.5 25.5H37.5C38.191 25.5 38.75 24.941 38.75 24.25C38.75 23.559 38.191 23 37.5 23Z" fill="url(#paint2_linear_service6)"/>
<path d="M37.5 29.5H17.5C16.809 29.5 16.25 30.059 16.25 30.75C16.25 31.441 16.809 32 17.5 32H37.5C38.191 32 38.75 31.441 38.75 30.75C38.75 30.059 38.191 29.5 37.5 29.5Z" fill="url(#paint3_linear_service6)"/>
<path d="M28.5 36H17.5C16.809 36 16.25 36.559 16.25 37.25C16.25 37.941 16.809 38.5 17.5 38.5H28.5C29.191 38.5 29.75 37.941 29.75 37.25C29.75 36.559 29.191 36 28.5 36Z" fill="url(#paint4_linear_service6)"/>
<path d="M38.5 35C37.119 35 36 36.119 36 37.5C36 38.881 37.119 40 38.5 40C39.881 40 41 38.881 41 37.5C41 36.119 39.881 35 38.5 35ZM38.5 38.5C37.95 38.5 37.5 38.05 37.5 37.5C37.5 36.95 37.95 36.5 38.5 36.5C39.05 36.5 39.5 36.95 39.5 37.5C39.5 38.05 39.05 38.5 38.5 38.5Z" fill="url(#paint5_linear_service6)"/>
<path d="M33.5 37.5L35.5 39.5" stroke="url(#paint6_linear_service6)" stroke-width="1.5" stroke-linecap="round"/>
<defs>
<linearGradient id="paint0_linear_service6" x1="10" y1="27.5" x2="45" y2="27.5" gradientUnits="userSpaceOnUse">
<stop stop-color="#F69220"/>
<stop offset="0.2863" stop-color="#F68E20"/>
<stop offset="0.5401" stop-color="#F48421"/>
<stop offset="0.7807" stop-color="#F37221"/>
<stop offset="1" stop-color="#F05A22"/>
</linearGradient>
<linearGradient id="paint1_linear_service6" x1="16.25" y1="17.75" x2="38.75" y2="17.75" gradientUnits="userSpaceOnUse">
<stop stop-color="#F69220"/>
<stop offset="0.2863" stop-color="#F68E20"/>
<stop offset="0.5401" stop-color="#F48421"/>
<stop offset="0.7807" stop-color="#F37221"/>
<stop offset="1" stop-color="#F05A22"/>
</linearGradient>
<linearGradient id="paint2_linear_service6" x1="16.25" y1="24.25" x2="38.75" y2="24.25" gradientUnits="userSpaceOnUse">
<stop stop-color="#F69220"/>
<stop offset="0.2863" stop-color="#F68E20"/>
<stop offset="0.5401" stop-color="#F48421"/>
<stop offset="0.7807" stop-color="#F37221"/>
<stop offset="1" stop-color="#F05A22"/>
</linearGradient>
<linearGradient id="paint3_linear_service6" x1="16.25" y1="30.75" x2="38.75" y2="30.75" gradientUnits="userSpaceOnUse">
<stop stop-color="#F69220"/>
<stop offset="0.2863" stop-color="#F68E20"/>
<stop offset="0.5401" stop-color="#F48421"/>
<stop offset="0.7807" stop-color="#F37221"/>
<stop offset="1" stop-color="#F05A22"/>
</linearGradient>
<linearGradient id="paint4_linear_service6" x1="16.25" y1="37.25" x2="29.75" y2="37.25" gradientUnits="userSpaceOnUse">
<stop stop-color="#F69220"/>
<stop offset="0.2863" stop-color="#F68E20"/>
<stop offset="0.5401" stop-color="#F48421"/>
<stop offset="0.7807" stop-color="#F37221"/>
<stop offset="1" stop-color="#F05A22"/>
</linearGradient>
<linearGradient id="paint5_linear_service6" x1="36" y1="37.5" x2="41" y2="37.5" gradientUnits="userSpaceOnUse">
<stop stop-color="#F69220"/>
<stop offset="0.2863" stop-color="#F68E20"/>
<stop offset="0.5401" stop-color="#F48421"/>
<stop offset="0.7807" stop-color="#F37221"/>
<stop offset="1" stop-color="#F05A22"/>
</linearGradient>
<linearGradient id="paint6_linear_service6" x1="33.5" y1="38.5" x2="35.5" y2="38.5" gradientUnits="userSpaceOnUse">
<stop stop-color="#F69220"/>
<stop offset="0.2863" stop-color="#F68E20"/>
<stop offset="0.5401" stop-color="#F48421"/>
<stop offset="0.7807" stop-color="#F37221"/>
<stop offset="1" stop-color="#F05A22"/>
</linearGradient>
</defs>
</svg>