<svg width="55" height="55" viewBox="0 0 55 55" fill="none" xmlns="http://www.w3.org/2000/svg">
<path d="M27.5 5.5C15.074 5.5 5 15.574 5 28C5 40.426 15.074 50.5 27.5 50.5C39.926 50.5 50 40.426 50 28C50 15.574 39.926 5.5 27.5 5.5ZM27.5 47.3C16.838 47.3 8.2 38.662 8.2 28C8.2 17.338 16.838 8.7 27.5 8.7C38.162 8.7 46.8 17.338 46.8 28C46.8 38.662 38.162 47.3 27.5 47.3Z" fill="url(#paint0_linear_service4)"/>
<path d="M27.5 12.1C19.216 12.1 12.5 18.816 12.5 27.1V35.5C12.5 36.327 13.173 37 14 37H41C41.827 37 42.5 36.327 42.5 35.5V27.1C42.5 18.816 35.784 12.1 27.5 12.1ZM39.3 33.8H15.7V27.1C15.7 20.581 21.981 15.3 27.5 15.3C33.019 15.3 39.3 20.581 39.3 27.1V33.8Z" fill="url(#paint1_linear_service4)"/>
<path d="M27.5 20.5C24.462 20.5 22 22.962 22 26C22 29.038 24.462 31.5 27.5 31.5C30.538 31.5 33 29.038 33 26C33 22.962 30.538 20.5 27.5 20.5ZM27.5 28.3C26.227 28.3 25.2 27.273 25.2 26C25.2 24.727 26.227 23.7 27.5 23.7C28.773 23.7 29.8 24.727 29.8 26C29.8 27.273 28.773 28.3 27.5 28.3Z" fill="url(#paint2_linear_service4)"/>
<path d="M19 40.5H36C36.827 40.5 37.5 39.827 37.5 39C37.5 38.173 36.827 37.5 36 37.5H19C18.173 37.5 17.5 38.173 17.5 39C17.5 39.827 18.173 40.5 19 40.5Z" fill="url(#paint3_linear_service4)"/>
<path d="M22 44H33C33.827 44 34.5 43.327 34.5 42.5C34.5 41.673 33.827 41 33 41H22C21.173 41 20.5 41.673 20.5 42.5C20.5 43.327 21.173 44 22 44Z" fill="url(#paint4_linear_service4)"/>
<defs>
<linearGradient id="paint0_linear_service4" x1="5" y1="28" x2="50" y2="28" gradientUnits="userSpaceOnUse">
<stop stop-color="#F69220"/>
<stop offset="0.2863" stop-color="#F68E20"/>
<stop offset="0.5401" stop-color="#F48421"/>
<stop offset="0.7807" stop-color="#F37221"/>
<stop offset="1" stop-color="#F05A22"/>
</linearGradient>
<linearGradient id="paint1_linear_service4" x1="12.5" y1="24.55" x2="42.5" y2="24.55" gradientUnits="userSpaceOnUse">
<stop stop-color="#F69220"/>
<stop offset="0.2863" stop-color="#F68E20"/>
<stop offset="0.5401" stop-color="#F48421"/>
<stop offset="0.7807" stop-color="#F37221"/>
<stop offset="1" stop-color="#F05A22"/>
</linearGradient>
<linearGradient id="paint2_linear_service4" x1="22" y1="26" x2="33" y2="26" gradientUnits="userSpaceOnUse">
<stop stop-color="#F69220"/>
<stop offset="0.2863" stop-color="#F68E20"/>
<stop offset="0.5401" stop-color="#F48421"/>
<stop offset="0.7807" stop-color="#F37221"/>
<stop offset="1" stop-color="#F05A22"/>
</linearGradient>
<linearGradient id="paint3_linear_service4" x1="17.5" y1="39" x2="37.5" y2="39" gradientUnits="userSpaceOnUse">
<stop stop-color="#F69220"/>
<stop offset="0.2863" stop-color="#F68E20"/>
<stop offset="0.5401" stop-color="#F48421"/>
<stop offset="0.7807" stop-color="#F37221"/>
<stop offset="1" stop-color="#F05A22"/>
</linearGradient>
<linearGradient id="paint4_linear_service4" x1="20.5" y1="42.5" x2="34.5" y2="42.5" gradientUnits="userSpaceOnUse">
<stop stop-color="#F69220"/>
<stop offset="0.2863" stop-color="#F68E20"/>
<stop offset="0.5401" stop-color="#F48421"/>
<stop offset="0.7807" stop-color="#F37221"/>
<stop offset="1" stop-color="#F05A22"/>
</linearGradient>
</defs>
</svg>